<svg xmlns="http://www.w3.org/2000/svg" viewBox="0 0 750 500"><g id="freepik--Character--inject-6"><path d="M437.87,241.25a4.83,4.83,0,0,1-1.59-9.47,5,5,0,0,1,4.78-8.25,6,6,0,0,1,9.29-4.48,6.73,6.73,0,0,1,8.31.23,4.8,4.8,0,0,1,3.85,8.34" style="fill:#263238"></path><path d="M437.14,241.9A20.48,20.48,0,0,1,458.41,224l1.06.05c11.39,1.2,16.74,11.54,15.22,22.9l-3.43,38-.9,8.95-25.89-3.06.49-9.69s-10.9-2.22-10.52-13.21C434.62,262.64,435.88,251.74,437.14,241.9Z" style="fill:#99655c"></path><path d="M444.87,281.13a26.64,26.64,0,0,0,14.58-3.54s-3.75,7.74-14.66,6.24Z" style="fill:#744a45"></path><path d="M439.56,252a1.57,1.57,0,0,0,1.43,1.65,1.51,1.51,0,0,0,1.69-1.34,1.57,1.57,0,0,0-1.44-1.65A1.49,1.49,0,0,0,439.56,252Z" style="fill:#263238"></path><path d="M439.25,247.38c.19.21,1.41-.61,3.1-.53s2.89,1,3.08.79-.09-.47-.61-.88a4.31,4.31,0,0,0-2.45-.89,4.11,4.11,0,0,0-2.48.68C439.35,246.92,439.16,247.28,439.25,247.38Z" style="fill:#263238"></path><path d="M454.92,252.79a1.58,1.58,0,0,0,1.44,1.65,1.51,1.51,0,0,0,1.69-1.34,1.58,1.58,0,0,0-1.44-1.65A1.51,1.51,0,0,0,454.92,252.79Z" style="fill:#263238"></path><path d="M455.82,248.47c.19.21,1.42-.61,3.1-.53s2.89,1,3.08.79-.09-.47-.61-.89a4.38,4.38,0,0,0-2.45-.88,4.11,4.11,0,0,0-2.48.68C455.92,248,455.73,248.37,455.82,248.47Z" style="fill:#263238"></path><path d="M449.11,260.69a11.52,11.52,0,0,0-2.71-.62c-.43-.06-.84-.17-.9-.46a2.28,2.28,0,0,1,.35-1.27c.46-1,.93-2.09,1.43-3.22,2-4.59,3.45-8.37,3.26-8.45s-2,3.58-3.93,8.17l-1.38,3.24a2.53,2.53,0,0,0-.3,1.68,1.06,1.06,0,0,0,.68.66,2.67,2.67,0,0,0,.73.14A10.66,10.66,0,0,0,449.11,260.69Z" style="fill:#263238"></path><path d="M455.46,243.13c.2.44,1.67,0,3.45.07s3.27.39,3.46,0c.08-.21-.22-.6-.85-1a5.31,5.31,0,0,0-2.64-.68,5.1,5.1,0,0,0-2.62.67C455.65,242.53,455.37,242.92,455.46,243.13Z" style="fill:#263238"></path><path d="M439.49,240.42c.34.4,1.75.06,3.43.12s3.08.41,3.42,0c.16-.19,0-.58-.65-1a5.39,5.39,0,0,0-2.75-.76,5.44,5.44,0,0,0-2.77.64C439.56,239.84,439.35,240.22,439.49,240.42Z" style="fill:#263238"></path><path d="M438.43,236.91s3.22-6.74,6.61-8.19c4.11-1.75,5.63,2.73,9.5,1.84s7.8-2.57,11.57.57c4.12,3.43,2,5.61,2.05,10.49.15,19.8,3.49,25.56,5,16.3.16-1,3-1.69,3.64-6,.81-5.56,1.34-12.33.28-16.35-.9-3.39-2.69-5.78-6-8.49-5.2-4.26-12.6-4.7-17.66-4.42S438.38,228.28,438.43,236.91Z" style="fill:#263238"></path><path d="M472.43,257.59a3,3,0,0,1,3.35-2.72c2,.29,4.26,1.56,3.93,5.78-.59,7.5-8,5.36-8,5.14S472.15,260.72,472.43,257.59Z" style="fill:#99655c"></path><path d="M473.58,263.1s.12.1.33.22a1.28,1.28,0,0,0,1,.1,3.24,3.24,0,0,0,1.72-2.78,4.37,4.37,0,0,0-.22-1.9,1.51,1.51,0,0,0-.9-1.08.67.67,0,0,0-.8.3c-.12.2-.08.35-.12.36s-.15-.14-.07-.44a.85.85,0,0,1,.33-.45,1,1,0,0,1,.74-.13,1.86,1.86,0,0,1,1.27,1.27,4.47,4.47,0,0,1,.29,2.12c-.17,1.51-1.05,2.86-2.16,3.09a1.41,1.41,0,0,1-1.18-.29C473.57,263.28,473.55,263.11,473.58,263.1Z" style="fill:#744a45"></path><path d="M473,243a7.1,7.1,0,0,1-3.25,1.32,2.45,2.45,0,0,1-2.63-1.85c-.07-.53.09-1.13-.23-1.55s-1.15-.38-1.79-.34a4.8,4.8,0,0,1-4.81-3.67,2,2,0,0,1-2.71.13,10.9,10.9,0,0,1-1.94-2.28,3.07,3.07,0,0,0-2.52-1.41,7.91,7.91,0,0,1-1.65.28c-1-.13-1.41-1.31-1.51-2.3s-.16-2.13-1-2.7-1.77-.29-2.69-.2-2.07-.18-2.26-1.07a1.77,1.77,0,0,1,.4-1.35,4.87,4.87,0,0,1,5.82-1.57,6.6,6.6,0,0,1,12.17-.71A6.69,6.69,0,0,1,473,226.7,4.86,4.86,0,0,1,478.1,234a4.6,4.6,0,0,1,2.36,3.78c0,1.56-1.63,3-3.11,2.56a2.69,2.69,0,0,1-4.77,2.46" style="fill:#263238"></path><path d="M449.56,226.66a.5.5,0,0,0,0,.14,2.19,2.19,0,0,0,0,.4,4.55,4.55,0,0,0,.47,1.47,5.44,5.44,0,0,0,1.59,1.86,5,5,0,0,0,3,1l-.12-.18a2.73,2.73,0,0,0,.05,2.08,7.56,7.56,0,0,0,1.2,1.91,6,6,0,0,0,.8.9,2.81,2.81,0,0,0,3.63-.26l-.28-.09a5.64,5.64,0,0,0,2.21,4,4.1,4.1,0,0,0,2.42.92,7.39,7.39,0,0,0,2.46-.42l-.2-.1a5.81,5.81,0,0,0,1.67,2.4,3.18,3.18,0,0,0,2.58.84,4.15,4.15,0,0,0,3.34-3.09l-.18.07a3.88,3.88,0,0,0,2.56.5,4.1,4.1,0,0,0,1.84-.72,3.41,3.41,0,0,0,.88-.87,2.43,2.43,0,0,0,.21-.38,5,5,0,0,1-1.16,1.15,4.19,4.19,0,0,1-1.79.64,3.78,3.78,0,0,1-2.42-.51l-.13-.09,0,.16a3.92,3.92,0,0,1-3.15,2.86,2.85,2.85,0,0,1-2.34-.79,5.62,5.62,0,0,1-1.57-2.27l0-.15-.15.05a7.15,7.15,0,0,1-2.34.4,3.81,3.81,0,0,1-2.25-.86,5.34,5.34,0,0,1-2.08-3.78l0-.36-.25.27a2.45,2.45,0,0,1-2.17.66,2.2,2.2,0,0,1-1-.43,5.59,5.59,0,0,1-.76-.84,7.63,7.63,0,0,1-1.17-1.83,2.47,2.47,0,0,1-.08-1.88l.07-.18h-.19a4.86,4.86,0,0,1-2.91-.94,5.33,5.33,0,0,1-1.57-1.75A6.09,6.09,0,0,1,449.56,226.66Z" style="fill:#455a64"></path><path d="M447.19,266.22c0,.07.39.33,1.15.5a6.38,6.38,0,0,0,5.62-1.67c.55-.55.75-1,.69-1s-1.34,1.35-3.48,2S447.24,266,447.19,266.22Z" style="fill:#263238"></path><path d="M422.45,389.1l66.49.91s18.6-7.78,23.71-8,15.25.44,19.94,8c4.85,7.81,5.53,21.57-9.42,31.58-14.55,9.74-81.09,18.75-90.21,17.92l-16.82-22.57s-.17-18.5,0-19.38,3-8.81,3-8.81Z" style="fill:#263238"></path><path d="M459.36,419l39.71,14.75L481,483.24c-4.62-2-4.75-31.09-4.75-31.09l-25.83-8.4Z" style="fill:#FF725E"></path><g style="opacity:0.6000000000000001"><path d="M479.67,436.07a2.15,2.15,0,0,1,2.82-.56,2.08,2.08,0,0,1,.57,2.79,2.28,2.28,0,0,1-3,.57,2.14,2.14,0,0,1-.27-3" style="fill:#fff"></path></g><path d="M499.07,433.76l-4-1.49-15.89,48.1s.16,2.56,1.8,2.87Z" style="fill:#263238"></path><path d="M475.67,452.86c.25.08.8-1.08,2-2s2.46-1.17,2.45-1.42-1.55-.41-3,.71S475.43,452.83,475.67,452.86Z" style="fill:#263238"></path><path d="M475.92,458.84c.22.14,1-.76,2.33-1.2s2.49-.29,2.57-.54-1.23-.9-2.87-.31S475.69,458.75,475.92,458.84Z" style="fill:#263238"></path><path d="M481.06,464.06c.13-.2-1-1-2.51-.84s-2.49,1.07-2.32,1.25,1.13-.27,2.4-.36S481,464.29,481.06,464.06Z" style="fill:#263238"></path><path d="M470,450.29c.26,0,.33-1.25.92-2.58s1.41-2.24,1.25-2.44-1.39.51-2.07,2.09S469.77,450.34,470,450.29Z" style="fill:#263238"></path><path d="M464.56,447a4.87,4.87,0,0,0,.89-2.48,11.86,11.86,0,0,0,.16-2.89,13.61,13.61,0,0,0-.24-1.7,3.12,3.12,0,0,0-.31-1,1.11,1.11,0,0,0-1.24-.58,1.38,1.38,0,0,0-.94.86,3.59,3.59,0,0,0-.22,1,10.2,10.2,0,0,0,0,1.74,9.35,9.35,0,0,0,.66,2.83c.65,1.54,1.41,2.26,1.48,2.19s-.43-.91-.88-2.4a10.93,10.93,0,0,1-.44-2.67,9.54,9.54,0,0,1,.09-1.58c0-.57.21-1,.49-1.07.11,0,.15,0,.26.16a2.41,2.41,0,0,1,.22.7,11.61,11.61,0,0,1,.27,1.58,14.23,14.23,0,0,1,.05,2.74A17.83,17.83,0,0,0,464.56,447Z" style="fill:#263238"></path><path d="M465,446.78c.07-.07-.62-.87-2.15-1.53a8.62,8.62,0,0,0-4.58-.57,2.18,2.18,0,0,0-1.83,1.12,1.24,1.24,0,0,0,.32,1.29,3.68,3.68,0,0,0,.81.59,5.93,5.93,0,0,0,1.67.61,6.08,6.08,0,0,0,2.95-.12c1.64-.5,2.29-1.4,2.22-1.45a24.38,24.38,0,0,1-2.37.83,6,6,0,0,1-2.62-.07,5.29,5.29,0,0,1-1.41-.57c-.5-.26-.85-.62-.73-.79a1.49,1.49,0,0,1,1.13-.57,8.6,8.6,0,0,1,1.57-.13,9.6,9.6,0,0,1,2.65.43C464.13,446.31,464.94,446.9,465,446.78Z" style="fill:#263238"></path><path d="M437.45,418l-35.57,16.5,20.3,44.37c4.12-2.2,2.13-29.05,2.13-29.05l23.22-9.63Z" style="fill:#FF725E"></path><g style="opacity:0.6000000000000001"><path d="M420,435.2a2,2,0,0,0-2.64-.3,1.91,1.91,0,0,0-.33,2.61,2.11,2.11,0,0,0,2.8.31,2,2,0,0,0,0-2.76" style="fill:#fff"></path></g><path d="M401.88,434.48l3.59-1.66,18.16,43.25s0,2.37-1.45,2.78Z" style="fill:#263238"></path><path d="M424.86,450.42c-.22.09-.81-.95-2-1.69s-2.35-.9-2.36-1.14,1.4-.49,2.81.44S425.08,450.37,424.86,450.42Z" style="fill:#263238"></path><path d="M425.07,456c-.19.15-1-.62-2.24-.94s-2.32-.08-2.41-.3,1.07-.92,2.62-.5S425.27,455.85,425.07,456Z" style="fill:#263238"></path><path d="M420.71,461.15c-.14-.18.8-1,2.24-1s2.38.81,2.24,1S424.13,461,423,461,420.83,461.35,420.71,461.15Z" style="fill:#263238"></path><path d="M429.91,447.64c-.24,0-.39-1.14-1-2.32s-1.46-2-1.33-2.16,1.33.36,2.06,1.77S430.13,447.66,429.91,447.64Z" style="fill:#263238"></path><path d="M434.69,444.17a4.59,4.59,0,0,1-1-2.23,10.57,10.57,0,0,1-.35-2.65,10.9,10.9,0,0,1,.09-1.59,3.33,3.33,0,0,1,.21-.91,1,1,0,0,1,1.11-.62,1.28,1.28,0,0,1,.93.72,3.18,3.18,0,0,1,.27.89,10,10,0,0,1,.16,1.59,8.61,8.61,0,0,1-.41,2.67c-.48,1.46-1.13,2.19-1.21,2.13s.33-.87.64-2.28a10,10,0,0,0,.21-2.5,8.49,8.49,0,0,0-.19-1.45c-.09-.53-.27-.93-.53-.95-.1,0-.14,0-.23.16a2.53,2.53,0,0,0-.16.67c-.07.51-.11,1-.13,1.48a13.68,13.68,0,0,0,.16,2.52A16.17,16.17,0,0,1,434.69,444.17Z" style="fill:#263238"></path><path d="M434.25,444c-.07-.06.51-.85,1.88-1.57a8.1,8.1,0,0,1,2.57-.81,7.77,7.77,0,0,1,1.61,0,2,2,0,0,1,1.77.9,1.14,1.14,0,0,1-.2,1.22,3.19,3.19,0,0,1-.71.6,5.62,5.62,0,0,1-4.22.78c-1.55-.34-2.22-1.12-2.16-1.17s.84.44,2.25.6a5.79,5.79,0,0,0,2.41-.26,4.85,4.85,0,0,0,1.27-.63c.44-.28.74-.63.61-.79a1.43,1.43,0,0,0-1.09-.44,7.8,7.8,0,0,0-1.45,0,9.14,9.14,0,0,0-2.42.58C435,443.53,434.34,444.13,434.25,444Z" style="fill:#263238"></path><path d="M419.14,388.75s-28.72-10.72-39.29-9.33c-5.91.77-15.15,5.28-15.85,12.86s1.14,17.7,11.36,22.64,51,23.23,60.69,26.05,33.85,9.42,33.85,9.42l9.17-26.16S429,406.9,426.36,405s-9.34-4.58-9.34-4.58Z" style="fill:#263238"></path><path d="M519,392.31l-.2-.05-.57-.18c-.51-.15-1.26-.37-2.24-.6a26.9,26.9,0,0,0-3.6-.63,26,26,0,0,0-4.83,0,28.06,28.06,0,0,0-5.75,1.09,20,20,0,0,0-3,1.19l-3.12,1.52c-4.3,2-9.1,4.16-14.21,6.18-10.23,4.1-20.05,6-27.05,7.63-3.52.78-6.36,1.42-8.32,1.88l-2.25.54-.59.13-.2,0,.19-.07.58-.16c.52-.14,1.27-.35,2.25-.59,2-.5,4.78-1.18,8.29-2,7-1.65,16.79-3.62,27-7.71,5.1-2,9.9-4.11,14.19-6.15l3.13-1.51a19.45,19.45,0,0,1,3.08-1.18,27.73,27.73,0,0,1,5.8-1.07,26.06,26.06,0,0,1,4.87,0,24.62,24.62,0,0,1,3.61.68c1,.25,1.72.49,2.22.66l.57.21Z" style="fill:#455a64"></path><path d="M517.45,388.52c0,.05-.87-.1-2.28-.25a34.43,34.43,0,0,0-5.51-.16,34.83,34.83,0,0,0-5.47.72c-1.38.29-2.23.54-2.24.49a2.42,2.42,0,0,1,.57-.23c.38-.13.93-.3,1.62-.47a28.12,28.12,0,0,1,5.5-.82,28.91,28.91,0,0,1,5.56.25c.7.1,1.27.21,1.66.3A2.38,2.38,0,0,1,517.45,388.52Z" style="fill:#455a64"></path><path d="M407.06,396.35s-.83-.58-2.21-1.43a29.71,29.71,0,0,0-5.68-2.72,30.08,30.08,0,0,0-6.14-1.45c-1.6-.2-2.61-.22-2.61-.27a2.83,2.83,0,0,1,.71,0,19.21,19.21,0,0,1,1.93.09,26.94,26.94,0,0,1,6.21,1.37,26.17,26.17,0,0,1,5.7,2.84,16.6,16.6,0,0,1,1.56,1.14A3,3,0,0,1,407.06,396.35Z" style="fill:#455a64"></path><path d="M421.47,435.36l.22.08.66.28c.57.23,1.41.63,2.53,1.06,2.24.88,5.54,2.1,9.78,3.49,8.49,2.78,20.68,6.31,35.27,10l-.17.09,8.88-24.64.09.19-11-4.51-60.83-25h0l0,0c-2.47-2.62-4.75-4.93-6.88-6.79a46,46,0,0,0-5.78-4.36,44.71,44.71,0,0,0-4-2.21l-1.07-.49-.36-.18a3.41,3.41,0,0,1,.37.15l1.08.47a37.75,37.75,0,0,1,4,2.17,46.25,46.25,0,0,1,5.82,4.32c2.15,1.86,4.45,4.16,6.94,6.78l0,0,60.87,24.94,11,4.52.14.06-.05.13c-3.17,8.76-6.18,17.09-8.9,24.64l0,.12-.12,0c-14.59-3.7-26.78-7.27-35.25-10.09-4.23-1.41-7.53-2.66-9.76-3.57-1.12-.45-2-.86-2.52-1.1l-.65-.3Z" style="fill:#455a64"></path><path d="M492.44,297.24s8.27,4.76,9.95,10.36c1,3.39,8.73,46.86,10,55.43s-1.36,14.92-5,17.77-14.74,6.63-14.74,6.63L477,392.48l-4.47-11.37,14.84-21.32-1.44-14.36Z" style="fill:#FF725E"></path><path d="M476.19,289.73,470,286.18s-5.66,6.62-13.38,5.81a19.43,19.43,0,0,1-12.28-6.72l-23,4.68h0c-1.54.31-4.36,1.29-7.05,5.14-3,4.29-17.24,23.32-17.24,23.32H387a7.41,7.41,0,0,0-6.56,3.95c-1.7,3.24-3.74,7.58-3.54,9.38.33,3-.25,11.37,3.82,14,1.29.83,5.91,3.3,9.5,3.13,5.29-.25,11.43-3,15-5.48,3-2.09,10-9.34,12.66-12.17v.05l1.72,60.37,60.34-1.72,12.5-92.65S476.8,289.73,476.19,289.73Z" style="fill:#FF725E"></path><path d="M417.67,305.9c.09,0,.24,7.48.35,16.71s.13,16.72.05,16.72-.25-7.48-.36-16.71S417.59,305.9,417.67,305.9Z" style="fill:#263238"></path><path d="M499.75,354.7s-.51.08-1.42.26a17.73,17.73,0,0,0-3.74,1.19,24,24,0,0,0-5,3,43,43,0,0,0-5.24,4.85c-1.73,1.86-3.31,3.71-4.79,5.34a57.2,57.2,0,0,1-4.11,4.19,28.23,28.23,0,0,1-3.09,2.47c-.37.27-.69.45-.9.59a2,2,0,0,1-.33.18l.3-.24c.19-.15.5-.34.86-.63a34.18,34.18,0,0,0,3-2.53c1.22-1.13,2.59-2.57,4.05-4.22s3-3.49,4.77-5.36a41.18,41.18,0,0,1,5.29-4.86,23.37,23.37,0,0,1,5.06-3,15.86,15.86,0,0,1,3.81-1.11,10.15,10.15,0,0,1,1.07-.12Z" style="fill:#263238"></path><path d="M501.12,350.61c0,.06-.92.19-2.36.59a21.94,21.94,0,0,0-9.88,5.88c-1,1.08-1.58,1.83-1.63,1.79a2.59,2.59,0,0,1,.35-.55,14.75,14.75,0,0,1,1.12-1.39,19.91,19.91,0,0,1,10-5.95,14.36,14.36,0,0,1,1.75-.32A2.94,2.94,0,0,1,501.12,350.61Z" style="fill:#263238"></path><g style="opacity:0.30000000000000004"><path d="M388.82,340c3.19.87,7-3.73,9.93-6.6,1.51-1.5,3.08-3.1,3.63-5.15a8.14,8.14,0,0,0-.5-5.14,19.19,19.19,0,0,0-2.12-4.13c.27,2.48.88,6.28,0,9.39a16.57,16.57,0,0,1-4.09,6.63c-1.85,2.08-4,4.26-6.89,5"></path></g><path d="M402.47,337.39c-.06,0,.31-1.05.61-2.79a21.12,21.12,0,0,0,.3-3.06,21.51,21.51,0,0,0-1.17-7.41A19.89,19.89,0,0,0,401,321.3c-.82-1.55-1.49-2.42-1.44-2.46a3.46,3.46,0,0,1,.5.59,8.35,8.35,0,0,1,.51.74c.19.3.42.63.63,1a19.58,19.58,0,0,1,1.29,2.83,21,21,0,0,1,1,3.7,22.27,22.27,0,0,1,.23,3.82,19.63,19.63,0,0,1-.36,3.09,11.26,11.26,0,0,1-.28,1.17,8.39,8.39,0,0,1-.26.86A3.84,3.84,0,0,1,402.47,337.39Z" style="fill:#263238"></path><path d="M446.83,287.6c0,.08-.67.49-1.41,1.16s-1.23,1.31-1.31,1.26a4.52,4.52,0,0,1,2.72-2.42Z" style="fill:#263238"></path><path d="M453.11,291.25c.06.06-.54.72-1,1.68s-.68,1.83-.77,1.81a4.43,4.43,0,0,1,1.8-3.49Z" style="fill:#263238"></path><path d="M463.86,295a9.17,9.17,0,0,1-.69-1.8,9.37,9.37,0,0,1-.62-1.82,4.59,4.59,0,0,1,.91,1.72A4.51,4.51,0,0,1,463.86,295Z" style="fill:#263238"></path><path d="M470.78,291.76c-.1,0-.33-1-1-2.14s-1.5-1.82-1.43-1.89a4.17,4.17,0,0,1,1.69,1.73A4.24,4.24,0,0,1,470.78,291.76Z" style="fill:#263238"></path><path d="M490.64,311.31c.09,0-.94,8.26-2.28,18.42s-2.5,18.39-2.59,18.37.94-8.25,2.28-18.41S490.56,311.3,490.64,311.31Z" style="fill:#263238"></path><path d="M400.22,324.66a3.59,3.59,0,0,1,0,.86,7.52,7.52,0,0,1-.13,1c0,.19-.07.4-.1.62l-.17.68a19.57,19.57,0,0,1-1.19,3.24,23,23,0,0,1-2.22,3.6,18.92,18.92,0,0,1-2.95,3,12.62,12.62,0,0,1-3,1.79c-.22.09-.44.19-.65.26l-.6.17-.53.15-.45.06a5.35,5.35,0,0,1-.85.07,16.22,16.22,0,0,0,3-.91,13.27,13.27,0,0,0,2.86-1.81,19.7,19.7,0,0,0,2.88-3,23.21,23.21,0,0,0,2.21-3.54,19.21,19.21,0,0,0,1.23-3.17A27.09,27.09,0,0,0,400.22,324.66Z" style="fill:#263238"></path><g style="opacity:0.30000000000000004"><path d="M488.7,393.67c2.56-1.24,3.14-4.55,3.4-7.38q1.15-12.45,2.3-24.88c.36-3.9.53-8.35-2.22-11.14-2.51-2.54-6.5-2.7-10.08-2.69-22.08.07-41.57.71-63.65.77L419.57,387Z"></path></g><path d="M408.93,354.34l2.35,44.79a3.27,3.27,0,0,0,3.29,3.08l71.35.13a3.27,3.27,0,0,0,3.28-3.1l2.73-44c.09-1.83-1.21-4.26-3.07-4.3H412.28A3.26,3.26,0,0,0,408.93,354.34Z" style="fill:#e0e0e0"></path><path d="M408.93,354.34s0-.06,0-.17,0-.28,0-.5a3.17,3.17,0,0,1,.85-1.74,3.23,3.23,0,0,1,1.19-.82,4.33,4.33,0,0,1,1.72-.24h4.34l27.65-.05,41,0h2.91a2.6,2.6,0,0,1,1.48.38,3.8,3.8,0,0,1,1.09,1.06,5.19,5.19,0,0,1,.89,2.89c-.06,1-.11,2-.17,3q-.37,6-.76,12.33c-.52,8.38-1.06,17.06-1.61,25.95l-.1,1.66a16.31,16.31,0,0,1-.14,1.68,3.41,3.41,0,0,1-2.15,2.53,4.19,4.19,0,0,1-1.67.22h-4.91l-12.81,0-24.22,0-21.91-.06h-6.29c-.41,0-.82,0-1.24,0a3.42,3.42,0,0,1-2.94-3.44q-.06-1.17-.12-2.31c-.08-1.53-.15-3-.23-4.48-.59-11.65-1.07-21.08-1.4-27.61-.16-3.25-.28-5.78-.36-7.5,0-.86-.07-1.51-.09-2s0-.66,0-.66,0,.22.05.66.07,1.1.12,1.95c.1,1.73.24,4.25.42,7.51.36,6.52.87,16,1.5,27.6.08,1.46.16,2.95.24,4.48q.06,1.14.12,2.31a3.25,3.25,0,0,0,.75,2.11,3.18,3.18,0,0,0,2,1.1,12,12,0,0,0,1.21,0h6.29l21.91,0,24.22,0,12.81,0h4.91A3.84,3.84,0,0,0,487,402a3.11,3.11,0,0,0,2-2.3c.09-.51.09-1.09.13-1.63l.11-1.67c.55-8.88,1.08-17.56,1.6-25.94q.39-6.29.77-12.34l.18-3a4.88,4.88,0,0,0-.84-2.72,2.65,2.65,0,0,0-2.33-1.32H485.7l-41,0-27.65,0h-4.34a4,4,0,0,0-1.69.22,3.16,3.16,0,0,0-1.18.78,3.21,3.21,0,0,0-.86,1.71C408.92,354.11,409,354.34,408.93,354.34Z" style="fill:#263238"></path><path d="M455.16,376.19A4.21,4.21,0,1,1,451,372,4.2,4.2,0,0,1,455.16,376.19Z" style="fill:#fff"></path><path d="M455.16,376.19s0-.38-.19-1a4.12,4.12,0,0,0-5.4-2.8,4,4,0,0,0-1.87,1.42,4,4,0,0,0,0,4.79,4,4,0,0,0,1.87,1.42,4.14,4.14,0,0,0,5.4-2.8c.17-.64.16-1,.19-1a.8.8,0,0,1,0,.27,3.84,3.84,0,0,1-.09.77,4.19,4.19,0,0,1-1.52,2.38,4.14,4.14,0,0,1-1.81.83,4.38,4.38,0,0,1-2.28-.17,4.28,4.28,0,0,1-2-1.51,4.33,4.33,0,0,1,0-5.15,4.28,4.28,0,0,1,2-1.51,4.38,4.38,0,0,1,2.28-.17,4.26,4.26,0,0,1,3.33,3.22,3.77,3.77,0,0,1,.09.77A.85.85,0,0,1,455.16,376.19Z" style="fill:#263238"></path><path d="M411.34,359.3c.08,0,.43,7.52.78,16.81s.56,16.82.48,16.82-.44-7.52-.79-16.81S411.25,359.3,411.34,359.3Z" style="fill:#263238"></path><path d="M389.89,300.85c-.42-.35,1.41-7.39,1.41-7.39s-4.84-7.9-5-10.44,1.91-7.77,1.91-7.77l13.89-3.57s4.46,8.28,5.35,11.21S406,295.76,406,295.76l-2.35,5.09S396.5,306.46,389.89,300.85Z" style="fill:#99655c"></path><path d="M386.36,284.54a29,29,0,0,1-1.47-3.08c-.87-2.09-1.95-4.13,0-5.3a2.6,2.6,0,0,1,2.1-.33s-.3-1.75.74-2.41a2.26,2.26,0,0,1,2.06-.18s-.33-2.48,1.18-3.53a3.69,3.69,0,0,1,3.85-.11s-1.2-10.83-1.3-11.41c-.38-2.1.4-4,2.49-3.45.77.19,1.2,1,2.1,4.53s2.35,9.55,2.35,9.55,2.44,4.24,3.59,6.54,3.43,7.53,3.62,8.92c.49,3.58-1.61,8.33-1.61,8.33l-14.76.85S386.92,285.57,386.36,284.54Z" style="fill:#99655c"></path><path d="M387.28,276.3a13.56,13.56,0,0,1,1.14,1.59l1.17,1.78a7.7,7.7,0,0,1,.63,1.11,2.31,2.31,0,0,1,.18,1.41,1.43,1.43,0,0,1-.94,1.09,1.84,1.84,0,0,1-1.32-.16,6.36,6.36,0,0,1-1-.61l-.8-.6c-.48-.37-.85-.69-1.1-.92s-.38-.37-.37-.39.62.44,1.6,1.14a13.65,13.65,0,0,0,1.77,1.12,1.6,1.6,0,0,0,1.11.13,1.1,1.1,0,0,0,.72-.87,2,2,0,0,0-.15-1.22,7.45,7.45,0,0,0-.59-1.08L388.24,278A11.85,11.85,0,0,1,387.28,276.3Z" style="fill:#744a45"></path><path d="M399.38,277.59a5,5,0,0,1,.16-2.32,5,5,0,0,1,.92-2.14c.08,0-.33,1-.62,2.21S399.47,277.59,399.38,277.59Z" style="fill:#744a45"></path><path d="M405.23,280.75a9.76,9.76,0,0,0-4.93-2.57,18.63,18.63,0,0,0-5.63-.22c-1.5.14-3.21.52-3.9,1.87a3.22,3.22,0,0,0,1.48,4,7.51,7.51,0,0,0,4.52.69,19,19,0,0,1,4.64-.19" style="fill:#99655c"></path><path d="M401.41,284.29s-.42,0-1.16,0a29.16,29.16,0,0,0-3.17.3,14.15,14.15,0,0,1-2.21.09,6.11,6.11,0,0,1-2.49-.63,3.82,3.82,0,0,1-1.85-2.14,3,3,0,0,1-.1-1.54,2.55,2.55,0,0,1,.81-1.36,5.3,5.3,0,0,1,2.84-1.11,27.62,27.62,0,0,1,2.8-.17,14.2,14.2,0,0,1,4.7.72,9.36,9.36,0,0,1,2.81,1.51,7.48,7.48,0,0,1,.65.59,1.76,1.76,0,0,1,.19.23s-.3-.28-.91-.72a9.93,9.93,0,0,0-2.81-1.41,14.75,14.75,0,0,0-4.62-.63,26.79,26.79,0,0,0-2.77.18,5,5,0,0,0-2.67,1,2.27,2.27,0,0,0-.72,1.2,2.66,2.66,0,0,0,.09,1.37,3.53,3.53,0,0,0,1.69,2,5.8,5.8,0,0,0,2.37.62,12.94,12.94,0,0,0,2.18-.05,25.43,25.43,0,0,1,3.19-.21,8.17,8.17,0,0,1,.86.09A.94.94,0,0,1,401.41,284.29Z" style="fill:#744a45"></path><path d="M387.39,276.47c1.55,2.36,2.92,4.95,4.23,7.45a4.6,4.6,0,0,0,1.48,1.93c.56.34,1.95-.28,2.57-.5l-4.26-9.7" style="fill:#99655c"></path><path d="M391.41,275.65a4.44,4.44,0,0,1,.38.72l.94,2c.79,1.73,1.87,4.14,3.08,6.88l.07.15-.16.06c-.46.16-1,.37-1.49.51a2.76,2.76,0,0,1-.65.09,1.42,1.42,0,0,1-.35,0,1.2,1.2,0,0,1-.32-.16,3.41,3.41,0,0,1-.86-.92c-.44-.69-.75-1.38-1.09-2-.67-1.29-1.29-2.45-1.82-3.41s-1-1.73-1.29-2.26a6.28,6.28,0,0,1-.46-.83,6,6,0,0,1,.56.77c.35.51.83,1.26,1.38,2.21s1.2,2.1,1.88,3.39c.35.63.68,1.34,1.09,2a3,3,0,0,0,.79.83c.26.22.68.14,1.07.05a14.71,14.71,0,0,0,1.46-.49l-.09.21c-1.2-2.75-2.25-5.18-3-6.93-.35-.84-.63-1.54-.86-2.07A4.35,4.35,0,0,1,391.41,275.65Z" style="fill:#744a45"></path><path d="M390.26,272.77l4.11,10.31a6.89,6.89,0,0,0,1.11,2.07,2.38,2.38,0,0,0,2.07.9,2.44,2.44,0,0,0,1.82-2.38,7.56,7.56,0,0,0-.77-3.13,66,66,0,0,1-3-9.65" style="fill:#99655c"></path><path d="M395.65,270.89a1.41,1.41,0,0,1,.11.32c.06.24.14.54.24.91.21.79.52,1.93,1,3.33s1,3.05,1.7,4.85a10,10,0,0,1,.86,2.95,3.11,3.11,0,0,1-.31,1.63A2.42,2.42,0,0,1,398,286.1a2.06,2.06,0,0,1-1.72-.14,3.29,3.29,0,0,1-1.22-1.15,18.77,18.77,0,0,1-1.24-2.8l-1.88-4.79L390.67,274c-.13-.36-.23-.65-.32-.88a1.37,1.37,0,0,1-.09-.32,1.3,1.3,0,0,1,.15.29l.38.87,1.33,3.2c.55,1.37,1.21,3,1.94,4.77a18.1,18.1,0,0,0,1.23,2.75,2.87,2.87,0,0,0,1.1,1,1.77,1.77,0,0,0,1.47.13,2.09,2.09,0,0,0,1.07-1.06,3,3,0,0,0,.29-1.49,9.92,9.92,0,0,0-.83-2.86c-.69-1.81-1.23-3.48-1.64-4.89s-.69-2.56-.87-3.36c-.08-.4-.15-.72-.18-.93A1.51,1.51,0,0,1,395.65,270.89Z" style="fill:#744a45"></path><path d="M390.59,297s-9.42,27.75-9.79,29.11,1.86,11.28,5.95,13.63,12-7.43,13-11,0-9.66,0-9.66l6.35-23.91" style="fill:#99655c"></path><path d="M399.76,292.63a1.75,1.75,0,0,1-.89-.11,5,5,0,0,1-3.11-2.85,1.86,1.86,0,0,1-.19-.88,6.31,6.31,0,0,0,4.19,3.84Z" style="fill:#744a45"></path></g></svg>
